HIERARCHY
ROOT Hips
{
	OFFSET 0.000000 0.000000 0.000000
	CHANNELS 6 Xposition Yposition Zposition Xrotation Yrotation Zrotation
	JOINT LeftUpLeg_virtual
	{
		OFFSET 0.000000 0.000000 0.000000
		CHANNELS 3 Xrotation Yrotation Zrotation
		JOINT LeftUpLeg
		{
			OFFSET 15.427100 -6.655098 0.678600
			CHANNELS 3 Xrotation Yrotation Zrotation
			JOINT LeftLeg
			{
				OFFSET 4.081073 -39.591068 13.024000
				CHANNELS 3 Xrotation Yrotation Zrotation
				JOINT LeftFoot
				{
					OFFSET -4.081074 -37.707932 -15.979700
					CHANNELS 3 Xrotation Yrotation Zrotation
					JOINT LeftToeBase
					{
						OFFSET 5.346399 -15.068900 20.645000
						CHANNELS 3 Xrotation Yrotation Zrotation
						JOINT LeftToe_End
						{
							OFFSET 2.754700 0.931300 11.300900
							CHANNELS 3 Xrotation Yrotation Zrotation
							End Site
							{
								OFFSET 0 0 0
							}
						}
					}
				}
			}
		}
	}
	JOINT RightUpLeg_virtual
	{
		OFFSET 0.000000 0.000000 0.000000
		CHANNELS 3 Xrotation Yrotation Zrotation
		JOINT RightUpLeg
		{
			OFFSET -15.569500 -6.655098 0.678600
			CHANNELS 3 Xrotation Yrotation Zrotation
			JOINT RightLeg
			{
				OFFSET -4.081825 -39.591045 13.023800
				CHANNELS 3 Xrotation Yrotation Zrotation
				JOINT RightFoot
				{
					OFFSET 4.081824 -37.707954 -15.979600
					CHANNELS 3 Xrotation Yrotation Zrotation
					JOINT RightToeBase
					{
						OFFSET -5.346400 -15.068900 20.645000
						CHANNELS 3 Xrotation Yrotation Zrotation
						JOINT RightToe_End
						{
							OFFSET -2.754700 0.931300 11.300900
							CHANNELS 3 Xrotation Yrotation Zrotation
							End Site
							{
								OFFSET 0 0 0
							}
						}
					}
				}
			}
		}
	}
	JOINT Spine_virtual
	{
		OFFSET 0.000000 0.000000 0.000000
		CHANNELS 3 Xrotation Yrotation Zrotation
		JOINT Spine
		{
			OFFSET -0.279200 12.230698 -2.892100
			CHANNELS 3 Xrotation Yrotation Zrotation
			JOINT Spine1
			{
				OFFSET -0.232667 10.192268 -1.242267
				CHANNELS 3 Xrotation Yrotation Zrotation
				JOINT Spine1_split
				{
					OFFSET -0.232667 10.192268 -1.242267
					CHANNELS 3 Xrotation Yrotation Zrotation
					JOINT Spine2
					{
						OFFSET -0.232667 10.192268 -1.242267
						CHANNELS 3 Xrotation Yrotation Zrotation
						JOINT Neck_virtual
						{
							OFFSET 0.000000 0.000000 0.000000
							CHANNELS 3 Xrotation Yrotation Zrotation
							JOINT Neck
							{
								OFFSET -0.418800 17.814194 8.416900
								CHANNELS 3 Xrotation Yrotation Zrotation
								JOINT Head
								{
									OFFSET 0.000000 7.031097 3.806800
									CHANNELS 3 Xrotation Yrotation Zrotation
									JOINT HeadTop_End
									{
										OFFSET 0.000000 24.646606 12.978600
										CHANNELS 3 Xrotation Yrotation Zrotation
										End Site
										{
											OFFSET 0 0 0
										}
									}
								}
							}
						}
						JOINT LeftShoulder_virtual
						{
							OFFSET 0.000000 0.000000 0.000000
							CHANNELS 3 Xrotation Yrotation Zrotation
							JOINT LeftShoulder
							{
								OFFSET 8.476499 7.247704 -3.868750
								CHANNELS 3 Xrotation Yrotation Zrotation
								JOINT LeftShoulder_split
								{
									OFFSET 8.476499 7.247704 -3.868750
									CHANNELS 3 Xrotation Yrotation Zrotation
									JOINT LeftArm
									{
										OFFSET 9.308998 -2.777710 0.208600
										CHANNELS 3 Xrotation Yrotation Zrotation
										JOINT LeftForeArm
										{
											OFFSET 29.972298 0.000000 0.000000
											CHANNELS 3 Xrotation Yrotation Zrotation
											JOINT LeftHand
											{
												OFFSET 26.026505 0.000000 0.000000
												CHANNELS 3 Xrotation Yrotation Zrotation
												End Site
												{
													OFFSET 0 0 0
												}
											}
										}
									}
								}
							}
						}
						JOINT RightShoulder_virtual
						{
							OFFSET 0.000000 0.000000 0.000000
							CHANNELS 3 Xrotation Yrotation Zrotation
							JOINT RightShoulder
							{
								OFFSET -7.570500 7.247704 -3.868750
								CHANNELS 3 Xrotation Yrotation Zrotation
								JOINT RightShoulder_split
								{
									OFFSET -7.570500 7.247704 -3.868750
									CHANNELS 3 Xrotation Yrotation Zrotation
									JOINT RightArm
									{
										OFFSET -9.308998 -2.777710 0.208500
										CHANNELS 3 Xrotation Yrotation Zrotation
										JOINT RightForeArm
										{
											OFFSET -29.972300 0.000000 0.000000
											CHANNELS 3 Xrotation Yrotation Zrotation
											JOINT RightHand
											{
												OFFSET -26.026505 0.000000 0.000000
												CHANNELS 3 Xrotation Yrotation Zrotation
												End Site
												{
													OFFSET 0 0 0
												}
											}
										}
									}
								}
							}
						}
					}
				}
			}
		}
	}
}
MOTION
Frames: 4
Frame Time: 0.03333333
0.491271 80.732201 -0.852081 0.000000 0.000000 0.000000 -0.670462 -15.866304 -1.474236 -34.088357 16.789293 15.237349 50.399805 2.984536 9.835930 -17.572607 2.191342 -12.366332 -0.201335 -0.000005 -0.000003 0.000000 0.000000 0.000000 -0.670462 -15.866304 -1.474236 -28.978461 -20.726100 -12.080170 49.610130 -2.485230 -9.717470 -21.315205 -2.884295 11.762114 -0.041266 0.000026 -0.000002 0.000000 0.000000 0.000000 -0.670462 -15.866304 -1.474236 3.775696 1.264926 0.062953 2.523602 1.177440 -0.059023 0.000000 0.000000 0.000000 0.000000 0.000000 0.000000 2.503912 1.224026 -0.090937 0.457849 0.824228 4.848789 8.545303 11.130797 -0.783160 0.000000 0.000000 0.000000 2.503912 1.224026 -0.090937 0.513447 1.082366 14.986782 0.000000 0.000000 0.000000 -49.547432 -53.697178 -56.631974 -0.000002 -52.589561 -0.000001 0.000000 0.000000 0.000000 2.503912 1.224026 -0.090937 0.384722 -1.325532 -0.769391 0.000000 0.000000 0.000000 -176.134091 84.807891 169.697703 0.000001 25.659967 -0.000000 0.000000 0.000000 0.000000 
0.559638 80.634598 -0.811146 0.000000 0.000000 0.000000 -0.692304 -15.759572 -1.449492 -34.076104 16.601372 15.067993 50.586249 3.110723 9.828284 -17.689278 2.225595 -12.376895 -0.201735 0.000002 -0.000001 0.000000 0.000000 0.000000 -0.692304 -15.759572 -1.449492 -29.190743 -21.125007 -12.425360 49.813867 -2.181357 -9.726762 -21.420168 -2.788274 11.654153 -0.041356 0.000007 -0.000002 0.000000 0.000000 0.000000 -0.692304 -15.759572 -1.449492 3.766953 1.229171 0.157482 2.511989 1.154429 0.015427 0.000000 0.000000 0.000000 0.000000 0.000000 0.000000 2.492557 1.203287 -0.016408 0.427323 0.835599 4.813935 8.559336 11.171113 -1.001660 0.000000 0.000000 0.000000 2.492557 1.203287 -0.016408 0.696102 0.770071 15.279763 0.000000 0.000000 0.000000 -49.162807 -53.221520 -56.426064 -0.000004 -52.964733 -0.000006 0.000000 0.000000 0.000000 2.492557 1.203287 -0.016408 0.383952 -1.340515 -0.713609 0.000000 0.000000 0.000000 -174.944955 84.873672 168.720344 0.000001 25.763197 -0.000001 0.000000 0.000000 0.000000 
0.676929 80.519157 -0.757252 0.000000 0.000000 0.000000 -0.776530 -15.690218 -1.425303 -33.947809 16.346128 14.826631 50.803828 3.357739 9.811358 -17.859155 2.284289 -12.428184 -0.204019 0.000004 -0.000005 0.000000 0.000000 0.000000 -0.776530 -15.690218 -1.425303 -29.386148 -21.457558 -12.820239 50.048437 -1.854883 -9.737103 -21.510103 -2.704792 11.577090 -0.041169 0.000014 0.000001 0.000000 0.000000 0.000000 -0.776530 -15.690218 -1.425303 3.788049 1.213980 0.296558 2.524802 1.149001 0.120567 0.000000 0.000000 0.000000 0.000000 0.000000 0.000000 2.505399 1.201392 0.088318 0.385442 0.838614 4.727867 8.503749 11.082638 -1.138266 0.000000 0.000000 0.000000 2.505399 1.201392 0.088318 0.614098 0.699944 15.619080 0.000000 0.000000 0.000000 -49.322541 -52.782834 -56.988681 -0.000011 -53.012756 -0.000013 0.000000 0.000000 0.000000 2.505399 1.201392 0.088318 0.369205 -1.423147 -0.665887 0.000000 0.000000 0.000000 -174.470202 84.880748 168.433407 0.000000 25.903100 0.000000 0.000000 0.000000 0.000000 
0.902511 80.393219 -0.699509 0.000000 0.000000 0.000000 -0.903942 -15.805722 -1.372749 -33.711208 16.181898 14.538129 51.040658 3.764501 9.780173 -18.113880 2.336631 -12.495343 -0.209268 0.000000 -0.000001 0.000000 0.000000 0.000000 -0.903942 -15.805722 -1.372749 -29.629159 -21.512630 -13.234087 50.300600 -1.531928 -9.750530 -21.495336 -2.643912 11.574194 -0.040974 0.000000 -0.000003 0.000000 0.000000 0.000000 -0.903942 -15.805722 -1.372749 3.831842 1.264859 0.499760 2.560944 1.193401 0.289371 0.000000 0.000000 0.000000 0.000000 0.000000 0.000000 2.540844 1.251283 0.255827 0.335086 0.846978 4.551529 8.433188 10.901033 -1.359981 0.000000 0.000000 0.000000 2.540844 1.251283 0.255827 0.583202 0.552461 16.019215 0.000000 0.000000 0.000000 -49.494553 -52.085725 -57.569288 -0.000005 -53.080163 -0.000006 0.000000 0.000000 0.000000 2.540844 1.251283 0.255827 0.367402 -1.392479 -0.859874 0.000000 0.000000 0.000000 -173.383710 84.958811 167.419042 0.000001 26.040311 -0.000001 0.000000 0.000000 0.000000 
